<?xml version="1.0" encoding="UTF-8"?>
<svg width="126px" height="100px" viewBox="0 0 126 100" version="1.1" xmlns="http://www.w3.org/2000/svg" xmlns:xlink="http://www.w3.org/1999/xlink">
    <!-- Generator: Sketch 48.1 (47250) - http://www.bohemiancoding.com/sketch -->
    <title>Artboard</title>
    <desc>Created with Sketch.</desc>
    <defs></defs>
    <g id="Page-1" stroke="none" stroke-width="1" fill="none" fill-rule="evenodd">
        <g id="Artboard">
            <g id="logo-powered-by" transform="translate(0.000000, 40.000000)" fill-rule="nonzero">
                <path d="M59.6799734,9.72146512 C57.0253777,9.72146512 56.012975,11.6976977 56.012975,11.6976977 L55.9679002,11.6976977 C55.9679002,11.6976977 56.0354077,11.2935349 56.0354077,10.7545814 L56.0354077,5.74744186 C56.0354077,5.61013953 55.9240832,5.499 55.7867621,5.499 L52.189787,5.499 C52.0524659,5.499 51.9409318,5.61013953 51.9409318,5.74744186 L51.9409318,6.93502326 C51.9409318,7.07232558 52.0524659,7.18346512 52.189787,7.18346512 L53.8531547,7.18346512 L53.8531547,21.1068837 C53.8531547,21.244186 53.9646889,21.3553256 54.10201,21.3553256 L55.6741797,21.3553256 C55.8115008,21.3553256 55.9230349,21.244186 55.9230349,21.1068837 L55.9230349,20.457 C55.9230349,19.9628372 55.8555275,19.5584651 55.8555275,19.5584651 L55.9006023,19.5584651 C55.9006023,19.5584651 56.8679301,21.6246977 59.4998835,21.6246977 C62.5144493,21.6246977 64.6967022,19.289093 64.6967022,15.673186 C64.6967022,12.1470698 62.7620466,9.72146512 59.6799734,9.72146512 Z M59.207421,19.7382558 C57.0253777,19.7382558 55.9679002,17.7394186 55.9679002,15.7179767 C55.9679002,12.820814 57.565228,11.6305116 59.2524958,11.6305116 C61.1422862,11.6305116 62.469584,13.2249767 62.469584,15.6955814 C62.469584,18.2783721 60.984629,19.7382558 59.207421,19.7382558 Z" id="Fill-1" fill="#222222"></path>
                <path d="M47.6875408,7.7224186 L49.4846656,7.7224186 C49.6219867,7.7224186 49.7333111,7.61127907 49.7333111,7.47418605 L49.7333111,5.74744186 C49.7333111,5.61013953 49.6219867,5.499 49.4846656,5.499 L47.6875408,5.499 C47.55001,5.499 47.4386855,5.61013953 47.4386855,5.74744186 L47.4386855,7.47418605 C47.4386855,7.61127907 47.55001,7.7224186 47.6875408,7.7224186" id="Fill-2" fill="#222222"></path>
                <path d="M51.2167987,19.6708605 L49.6658037,19.6708605 L49.6658037,10.2392791 C49.6658037,10.102186 49.5544792,9.99083721 49.4171581,9.99083721 L45.8428253,9.99083721 C45.7055042,9.99083721 45.59397,10.102186 45.59397,10.2392791 L45.59397,11.4270698 C45.59397,11.5641628 45.7055042,11.6753023 45.8428253,11.6753023 L47.4837604,11.6753023 L47.4837604,19.6708605 L45.955198,19.6708605 C45.8178769,19.6708605 45.7065524,19.782 45.7065524,19.919093 L45.7065524,21.1068837 C45.7065524,21.244186 45.8178769,21.3553256 45.955198,21.3553256 L51.2167987,21.3553256 C51.3543295,21.3553256 51.4656539,21.244186 51.4656539,21.1068837 L51.4656539,19.919093 C51.4656539,19.782 51.3543295,19.6708605 51.2167987,19.6708605" id="Fill-3" fill="#222222"></path>
                <path d="M43.3108752,16.9532791 L41.8288552,16.9532791 C41.6915341,16.9532791 41.58,17.0644186 41.58,17.2017209 L41.58,19.5136744 L36.0458536,19.5136744 L36.0458536,7.34065116 L37.799371,7.34065116 C37.9366922,7.34065116 38.0480166,7.22951163 38.0480166,7.0924186 L38.0480166,5.74744186 C38.0480166,5.61013953 37.9366922,5.499 37.799371,5.499 L32.065218,5.499 C31.9278968,5.499 31.8163627,5.61013953 31.8163627,5.74744186 L31.8163627,7.0924186 C31.8163627,7.22951163 31.9278968,7.34065116 32.065218,7.34065116 L33.7963028,7.34065116 L33.7963028,19.6034651 L32.065218,19.6034651 C31.9278968,19.6034651 31.8163627,19.7146047 31.8163627,19.8516977 L31.8163627,21.1068837 C31.8163627,21.244186 31.9278968,21.3553256 32.065218,21.3553256 L43.3108752,21.3553256 C43.448406,21.3553256 43.5597304,21.244186 43.5597304,21.1068837 L43.5597304,17.2017209 C43.5597304,17.0644186 43.448406,16.9532791 43.3108752,16.9532791" id="Fill-4" fill="#222222"></path>
                <path d="M82.086589,9.72146512 C78.6896206,9.72146512 75.9450849,12.2144651 75.9450849,15.6507907 C75.9450849,19.1093023 78.6896206,21.6246977 82.086589,21.6246977 C85.4835574,21.6246977 88.2280932,19.1093023 88.2280932,15.6507907 C88.2280932,12.2144651 85.4835574,9.72146512 82.086589,9.72146512 Z M82.086589,19.7382558 C79.9269784,19.7382558 78.172203,18.0313953 78.172203,15.6507907 C78.172203,13.2923721 79.9269784,11.607907 82.086589,11.607907 C84.2237671,11.607907 86.000975,13.2923721 86.000975,15.6507907 C86.000975,18.0313953 84.2237671,19.7382558 82.086589,19.7382558 Z" id="Fill-5" fill="#222222"></path>
                <path d="M74.5293145,9.8734186 C74.4324559,9.8642093 74.3133744,9.85604651 74.1900998,9.85604651 C72.4355341,9.85604651 71.1080266,11.1587442 70.5908186,12.820814 L70.5457438,12.820814 C70.5457438,12.820814 70.5908186,12.4838372 70.5908186,12.0346744 L70.5908186,11.3159302 C70.5908186,10.3952093 70.1182662,9.99083721 69.1285058,9.99083721 L66.8127055,9.99083721 C66.6751747,9.99083721 66.5638502,10.102186 66.5638502,10.2392791 L66.5638502,11.4270698 C66.5638502,11.5641628 66.6751747,11.6753023 66.8127055,11.6753023 L67.9810882,11.6753023 C68.296193,11.6753023 68.4760732,11.8324884 68.4760732,12.1694651 L68.4760732,19.6708605 L67.0150183,19.6708605 C66.8776972,19.6708605 66.7663727,19.782 66.7663727,19.919093 L66.7663727,21.1068837 C66.7663727,21.244186 66.8776972,21.3553256 67.0150183,21.3553256 L72.0967388,21.3553256 C72.2340599,21.3553256 72.3453844,21.244186 72.3453844,21.1068837 L72.3453844,19.919093 C72.3453844,19.782 72.2340599,19.6708605 72.0967388,19.6708605 L70.6581165,19.6708605 L70.6581165,16.6613023 C70.6581165,14.4378837 71.6929517,11.9898837 74.1225923,11.9898837 C74.2563494,11.9898837 74.3775275,11.999093 74.4773211,12.010814 C74.6244958,12.0279767 74.7525923,11.9120233 74.7525923,11.7640465 L74.7525923,10.1203953 C74.7525923,9.99293023 74.6565724,9.88555814 74.5293145,9.8734186" id="Fill-6" fill="#222222"></path>
                <path d="M102.301937,5.3817907 C102.118283,5.36316279 101.833368,5.34181395 101.491218,5.34181395 C100.141488,5.34181395 97.3969517,5.79097674 97.3969517,9.42948837 L97.3969517,9.99083721 L95.7560166,9.99083721 C95.6186955,9.99083721 95.5071614,10.102186 95.5071614,10.2392791 L95.5071614,11.4270698 C95.5071614,11.5641628 95.6186955,11.6753023 95.7560166,11.6753023 L97.3969517,11.6753023 L97.3969517,19.6708605 L95.8683894,19.6708605 C95.7310682,19.6708605 95.6197438,19.782 95.6197438,19.919093 L95.6197438,21.1068837 C95.6197438,21.244186 95.7310682,21.3553256 95.8683894,21.3553256 L101.422453,21.3553256 C101.559983,21.3553256 101.671308,21.244186 101.671308,21.1068837 L101.671308,19.919093 C101.671308,19.782 101.559983,19.6708605 101.422453,19.6708605 L99.578995,19.6708605 L99.578995,11.6753023 L102.074885,11.6753023 C102.212206,11.6753023 102.32374,11.5641628 102.32374,11.4270698 L102.32374,10.2392791 C102.32374,10.102186 102.212206,9.99083721 102.074885,9.99083721 L99.578995,9.99083721 L99.578995,9.38448837 C99.578995,7.34065116 100.996443,7.13846512 101.716173,7.13846512 C101.936725,7.13846512 102.116606,7.15081395 102.250153,7.16483721 C102.397747,7.18032558 102.526263,7.06625581 102.526263,6.91806977 L102.526263,5.62897674 C102.526263,5.50130233 102.429404,5.39476744 102.301937,5.3817907" id="Fill-7" fill="#4CBEBC"></path>
                <path d="M125.583844,19.6708605 L124.032849,19.6708605 L124.032849,14.0785116 C124.032849,11.1811395 122.840566,9.72146512 120.320985,9.72146512 C118.453837,9.72146512 116.879151,10.9791628 116.249151,12.3940465 L116.204077,12.3940465 C115.821674,10.5523953 114.696899,9.72146512 112.874616,9.72146512 C111.0299,9.72146512 109.387707,11.1363488 108.825215,12.4838372 L108.780349,12.4838372 C108.780349,12.4838372 108.847647,12.1918605 108.847647,11.8324884 L108.847647,11.2485349 C108.847647,10.4176047 108.375304,9.99083721 107.407977,9.99083721 L105.092176,9.99083721 C104.954646,9.99083721 104.843321,10.102186 104.843321,10.2392791 L104.843321,11.4270698 C104.843321,11.5641628 104.954646,11.6753023 105.092176,11.6753023 L106.238126,11.6753023 C106.511511,11.6753023 106.733111,11.8965349 106.733111,12.1694651 L106.733111,19.6708605 L105.204549,19.6708605 C105.067228,19.6708605 104.955903,19.782 104.955903,19.919093 L104.955903,21.1068837 C104.955903,21.244186 105.067228,21.3553256 105.204549,21.3553256 L110.46615,21.3553256 C110.603681,21.3553256 110.715005,21.244186 110.715005,21.1068837 L110.715005,19.919093 C110.715005,19.782 110.603681,19.6708605 110.46615,19.6708605 L108.915155,19.6708605 L108.915155,16.2121395 C108.915155,13.9887209 110.175155,11.6976977 112.334765,11.6976977 C114.089331,11.6976977 114.314496,13.0677907 114.314496,14.5500698 L114.314496,21.1068837 C114.314496,21.244186 114.42582,21.3553256 114.563141,21.3553256 L118.025101,21.3553256 C118.162423,21.3553256 118.273957,21.244186 118.273957,21.1068837 L118.273957,19.919093 C118.273957,19.782 118.162423,19.6708605 118.025101,19.6708605 L116.496539,19.6708605 L116.496539,16.1223488 C116.496539,13.8763256 117.711464,11.6976977 119.848642,11.6976977 C121.558343,11.6976977 121.850805,12.9553953 121.850805,14.5500698 L121.850805,21.1068837 C121.850805,21.244186 121.96213,21.3553256 122.099661,21.3553256 L125.583844,21.3553256 C125.721374,21.3553256 125.832699,21.244186 125.832699,21.1068837 L125.832699,19.919093 C125.832699,19.782 125.721374,19.6708605 125.583844,19.6708605" id="Fill-8" fill="#4CBEBC"></path>
                <path d="M92.5814875,18.9971163 L90.7392879,18.9971163 C90.6017571,18.9971163 90.4904326,19.1082558 90.4904326,19.2453488 L90.4904326,21.1068837 C90.4904326,21.244186 90.6017571,21.3553256 90.7392879,21.3553256 L92.5814875,21.3553256 C92.7188087,21.3553256 92.8301331,21.244186 92.8301331,21.1068837 L92.8301331,19.2453488 C92.8301331,19.1082558 92.7188087,18.9971163 92.5814875,18.9971163" id="Fill-9" fill="#4CBEBC"></path>
                <path d="M15.3625657,7.43211628 L16.3640666,6.43227907 C16.4351381,6.36153488 16.4328319,6.24788372 16.3605025,6.17860465 C14.7698835,4.65404651 12.6115308,3.71595349 10.2376572,3.71595349 C7.86378369,3.71595349 5.7052213,4.65404651 4.11460233,6.17860465 C4.04227288,6.24788372 4.04017637,6.36153488 4.11103827,6.43227907 L5.11274875,7.43211628 C5.17941764,7.49867442 5.2907421,7.50097674 5.35908819,7.43588372 C6.62936106,6.22716279 8.34828619,5.48413953 10.2376572,5.48413953 C12.1270283,5.48413953 13.8457438,6.22716279 15.1162263,7.43588372 C15.1845724,7.50097674 15.2958968,7.49867442 15.3625657,7.43211628 Z M2.60847255,4.9322093 C2.67577038,4.99918605 2.78772379,5.00106977 2.85606988,4.93513953 C4.76808319,3.0867907 7.37215308,1.94776744 10.2376572,1.94776744 C13.1031614,1.94776744 15.7070216,3.0867907 17.6192446,4.93493023 C17.6875907,5.00106977 17.7993344,4.99918605 17.8666323,4.9322093 L18.8681331,3.93237209 C18.9375275,3.86309302 18.9375275,3.74965116 18.8670849,3.6812093 C16.6345158,1.51513953 13.5893411,0.179581395 10.2376572,0.179581395 C6.88576373,0.179581395 3.84079867,1.51513953 1.60801997,3.6812093 C1.53757737,3.74965116 1.53778702,3.86309302 1.60718136,3.93237209 L2.60847255,4.9322093 Z M20.0811714,5.18923256 L13.1541065,12.1047907 C11.5500699,13.7061628 8.92524459,13.7061628 7.32120799,12.1047907 L0.394352745,5.18923256 C0.264579035,5.05967442 0.0423494176,5.15134884 0.0423494176,5.33490698 L0.0423494176,17.597093 C0.0423494176,18.0661395 0.314266223,18.7212558 0.646352745,19.0527907 L7.32120799,25.7167674 C8.92524459,27.3181395 11.5500699,27.3181395 13.1541065,25.7167674 L19.8291714,19.0527907 C20.1612579,18.7212558 20.4331747,18.0661395 20.4331747,17.597093 L20.4331747,5.33490698 C20.4331747,5.15134884 20.2109451,5.05946512 20.0811714,5.18923256 Z M6.61992679,8.67788372 C6.54612978,8.74674419 6.54424293,8.86144186 6.61573378,8.93260465 L7.61681531,9.93202326 C7.68243594,9.99753488 7.79208319,9.99983721 7.86084859,9.93746512 C8.48854243,9.36774419 9.3223228,9.02030233 10.2376572,9.02030233 C11.152782,9.02030233 11.986772,9.36774419 12.6144659,9.93746512 C12.6832313,9.99983721 12.7928785,9.99753488 12.8584992,9.93202326 L13.8595807,8.93260465 C13.9308619,8.86144186 13.928975,8.74674419 13.855178,8.67788372 C12.9069285,7.794 11.6343494,7.25211628 10.2376572,7.25211628 C8.84075541,7.25211628 7.56838602,7.794 6.61992679,8.67788372 Z" id="Fill-10" fill="#4CBEBC"></path>
            </g>
            <text id="Audiobooks-powered-b" font-family="MuseoSlab-500, Museo Slab" font-size="10.5" font-weight="normal" fill="#9B9B9B">
                <tspan x="0" y="34">Audiobooks powered by</tspan>
            </text>
        </g>
    </g>
</svg>